<svg aria-hidden="true" style="position: absolute; width: 0; height: 0; overflow: hidden;" version="1.1" xmlns="http://www.w3.org/2000/svg" xmlns:xlink="http://www.w3.org/1999/xlink">
<defs>

<!--Facebook icon-->
<symbol id="icon-facebook" viewBox="0 0 32 32">
<path d="M18.9375 0.0569322C17.1378 0.340057 15.8737 0.953557 14.8366 2.04706C13.9635 2.96774 13.4187 4.04793 13.1104 5.46943C12.9939 6.00637 12.9791 6.33087 12.955 8.86006L12.9284 11.6569H10.4642H8V14.4999V17.343L10.4531 17.3593L12.9062 17.3757L12.9221 24.6726L12.938 31.9694H15.8752H18.8125V24.6569V17.3444H21.25C22.5906 17.3444 23.6885 17.3374 23.6898 17.3288C23.8534 16.1906 24.4099 11.7364 24.3926 11.7038C24.3789 11.678 23.1159 11.6569 21.5859 11.6569H18.8043L18.8253 9.32881C18.8459 7.05181 18.8496 6.99256 18.9941 6.63074C19.2869 5.89781 19.9029 5.46475 20.8226 5.34537C21.0749 5.31262 22.0339 5.28493 22.9538 5.28387L24.6264 5.28193L24.6101 2.73506L24.5938 0.188182L23.7812 0.11437C22.4491 -0.00669283 19.5597 -0.0409428 18.9375 0.0569322Z" />
</symbol>

<!--Instagram icon-->
<symbol id="icon-instagram" viewBox="0 0 32 32">
<path d="M16 7.784C11.4627 7.784 7.784 11.4627 7.784 16C7.784 20.5373 11.4627 24.216 16 24.216C20.5373 24.216 24.216 20.5373 24.216 16C24.216 11.4627 20.5373 7.784 16 7.784ZM16 21.3333C13.0547 21.3333 10.6667 18.9453 10.6667 16C10.6667 13.0547 13.0547 10.6667 16 10.6667C18.9453 10.6667 21.3333 13.0547 21.3333 16C21.3333 18.9453 18.9453 21.3333 16 21.3333Z" />
<path d="M26.4613 7.45867C26.4613 8.51905 25.6017 9.37867 24.5413 9.37867C23.4809 9.37867 22.6213 8.51905 22.6213 7.45867C22.6213 6.39828 23.4809 5.53867 24.5413 5.53867C25.6017 5.53867 26.4613 6.39828 26.4613 7.45867Z" />
<path d="M16 0C11.6547 0 11.1093 0.0186667 9.40267 0.096C6.92933 0.209333 4.47333 0.897333 2.68533 2.68533C0.890667 4.48 0.209333 6.93067 0.096 9.40267C0.0186667 11.1093 0 11.6547 0 16C0 20.3453 0.0186667 20.8907 0.096 22.5973C0.209333 25.068 0.9 27.5307 2.68533 29.3147C4.47867 31.108 6.93333 31.7907 9.40267 31.904C11.1093 31.9813 11.6547 32 16 32C20.3453 32 20.8907 31.9813 22.5973 31.904C25.0693 31.7907 27.528 31.1013 29.3147 29.3147C31.1107 27.5187 31.7907 25.0693 31.904 22.5973C31.9813 20.8907 32 20.3453 32 16C32 11.6547 31.9813 11.1093 31.904 9.40267C31.7907 6.92933 31.1013 4.472 29.3147 2.68533C27.524 0.894667 25.0627 0.208 22.5973 0.096C20.8907 0.0186667 20.3453 0 16 0ZM16 2.88267C20.272 2.88267 20.7787 2.89867 22.4653 2.976C24.2093 3.056 26.0053 3.45333 27.276 4.724C28.5587 6.00667 28.944 7.78533 29.024 9.53467C29.1013 11.2213 29.1173 11.728 29.1173 16C29.1173 20.272 29.1013 20.7787 29.024 22.4653C28.9453 24.2 28.5387 26.0133 27.276 27.276C25.9933 28.5587 24.216 28.944 22.4653 29.024C20.7787 29.1013 20.272 29.1173 16 29.1173C11.728 29.1173 11.2213 29.1013 9.53467 29.024C7.81333 28.9453 5.976 28.5293 4.724 27.276C3.448 26 3.056 24.204 2.976 22.4653C2.89867 20.7787 2.88267 20.272 2.88267 16C2.88267 11.728 2.89867 11.2213 2.976 9.53467C3.05467 7.80667 3.46533 5.98267 4.724 4.724C6.004 3.444 7.78933 3.056 9.53467 2.976C11.2213 2.89867 11.728 2.88267 16 2.88267Z"/>
</symbol>

<!--Pinterest icon-->
<symbol id="icon-pinterest" viewBox="0 0 32 32">
<path d="M11.5362 0.0652057C10.7349 0.136461 9.63058 0.338603 8.81876 0.562746C4.85301 1.6574 1.73613 4.53719 0.502159 8.24668C0.088438 9.49046 0.00186852 10.0561 5.58709e-05 11.5282C-0.00125673 12.638 0.0198699 12.9473 0.136817 13.5299C0.554538 15.6106 1.47967 17.1533 2.8361 18.0308C3.8063 18.6584 4.31734 18.7158 4.55073 18.2232C4.71444 17.8776 5.0999 16.2341 5.05721 16.0636C5.03515 15.9755 4.85007 15.6821 4.64587 15.4116C4.17902 14.7931 3.88274 14.1806 3.70342 13.4633C3.51896 12.7253 3.50771 11.2112 3.67998 10.3093C4.35791 6.76087 6.90411 4.13034 10.3974 3.36935C12.3746 2.93862 14.583 3.1142 16.2694 3.83632C18.3525 4.72821 19.714 6.49528 20.1195 8.83303C20.2444 9.55278 20.2441 11.0305 20.1189 12.122C19.5859 16.7684 17.2801 19.9386 14.4367 19.9344C12.9027 19.9321 11.7206 19.0018 11.4599 17.5915C11.3403 16.9443 11.421 16.5545 12.2365 13.8409C13.0479 11.1412 13.2089 10.2938 13.0844 9.37877C12.8733 7.82658 11.6884 6.91851 10.2058 7.17278C8.59818 7.44842 7.41059 8.99642 7.15188 11.1532C7.03462 12.131 7.19732 13.5158 7.53385 14.4034C7.59898 14.5753 7.6523 14.7699 7.6523 14.8359C7.65236 14.9018 7.12957 17.1661 6.49058 19.8675C5.85165 22.569 5.27486 25.0734 5.20879 25.4329C4.93445 26.9272 4.92458 29.1714 5.18372 31.1457C5.3278 32.2435 5.44556 32.2644 6.14505 31.317C7.42446 29.584 8.42448 27.7632 8.89458 26.3106C8.9669 26.0872 9.31649 24.7702 9.67146 23.384L10.3168 20.8637L10.4975 21.1244C11.009 21.8625 12.2782 22.664 13.3716 22.9395C14.7161 23.2782 16.6008 23.1021 18.1291 22.4949C19.2502 22.0497 20.1627 21.433 21.1258 20.47C22.1243 19.4714 22.901 18.3119 23.4686 16.9726C24.3348 14.9287 24.6799 13.1566 24.681 10.7469C24.6817 9.45865 24.6647 9.19988 24.5427 8.64271C24.1092 6.66311 23.2314 4.99485 21.8743 3.5713C19.3485 0.921775 15.7249 -0.307074 11.5362 0.0652057Z" />
</symbol>

<!--Whatsapp icon-->
<symbol id="icon-whatsapp" viewBox="0 0 32 32">
<path d="M27.339 4.65067C24.3299 1.65333 20.3294 0.00133333 16.0677 0C7.28558 0 0.137995 7.112 0.133975 15.856C0.132636 18.6507 0.86682 21.3787 2.2615 23.784L0 32L8.4458 29.7947C10.773 31.0587 13.3935 31.724 16.0596 31.7253H16.0663C24.8471 31.7253 31.996 24.612 32 15.868C32.0027 11.632 30.3467 7.64667 27.339 4.65067ZM16.0677 29.0467H16.0623C13.6856 29.0467 11.3557 28.4107 9.322 27.2093L8.83835 26.924L3.82633 28.232L5.16475 23.368L4.84991 22.8693C3.52355 20.7707 2.8242 18.3453 2.82554 15.856C2.82822 8.58933 8.77002 2.67733 16.0744 2.67733C19.6113 2.67733 22.9366 4.05067 25.4365 6.54133C27.9365 9.03333 29.3125 12.344 29.3111 15.8653C29.3071 23.1347 23.3666 29.0467 16.0677 29.0467ZM23.3318 19.176C22.9339 18.9773 20.9765 18.0187 20.6108 17.8867C20.2463 17.7547 19.9811 17.688 19.7145 18.084C19.4479 18.48 18.6869 19.3733 18.4538 19.6387C18.222 19.9027 17.9889 19.936 17.591 19.7373C17.193 19.5387 15.9096 19.1213 14.3889 17.7707C13.2059 16.72 12.4061 15.4227 12.1743 15.0253C11.9426 14.628 12.1502 14.4147 12.3485 14.2173C12.528 14.04 12.7464 13.7547 12.946 13.5227C13.147 13.2933 13.2126 13.128 13.3466 12.8627C13.4793 12.5987 13.4136 12.3667 13.3131 12.168C13.2126 11.9707 12.4168 10.02 12.0859 9.22667C11.763 8.45333 11.4348 8.55867 11.1896 8.54667C10.9578 8.53467 10.6926 8.53333 10.426 8.53333C10.1607 8.53333 9.72929 8.632 9.36487 9.02933C9.00046 9.42667 7.97153 10.3853 7.97153 12.3347C7.97153 14.2853 9.39837 16.1693 9.59665 16.4333C9.79493 16.6973 12.4034 20.7 16.3972 22.416C17.3471 22.824 18.0893 23.068 18.6668 23.2507C19.6207 23.552 20.4888 23.5093 21.1748 23.408C21.9398 23.2947 23.5301 22.4493 23.8623 21.524C24.1946 20.5987 24.1946 19.804 24.0941 19.64C23.995 19.4733 23.7297 19.3747 23.3318 19.176Z" />
</symbol>

<!--Web icon-->
<symbol id="icon-web" viewBox="0 0 32 32">
<path d="M14.5541 0.0368935C11.5075 0.343834 8.7792 1.40695 6.33176 3.2407C5.55448 3.82301 4.19395 5.14678 3.54406 5.95287C0.174666 10.1324 -0.877111 15.7606 0.75504 20.8776C1.34694 22.7334 2.32212 24.5391 3.56698 26.0844C4.19583 26.8651 5.56419 28.1935 6.33176 28.7687C7.95401 29.9842 9.84131 30.9231 11.7001 31.4394C13.2303 31.8645 14.3266 32.0045 16.0885 31.9999C17.2096 31.9969 17.6768 31.9684 18.3744 31.8602C21.0869 31.4396 23.5435 30.4083 25.6969 28.7862C26.4719 28.2024 27.8375 26.8843 28.4539 26.1251C29.8859 24.3613 30.9986 22.1511 31.5602 19.9544C31.9088 18.5912 32.0189 17.6427 32.0189 16.0047C32.0189 14.3676 31.9086 13.4169 31.5611 12.0591C30.9982 9.85973 29.8858 7.64777 28.4587 5.89024C27.8374 5.12511 26.4651 3.79896 25.6994 3.22372C23.4351 1.52275 20.8366 0.463078 18.0299 0.0960771C17.3102 0.00200967 15.2488 -0.0331247 14.5541 0.0368935ZM15.0238 5.54579V8.9277L14.8516 8.92701C14.5294 8.92582 13.1158 8.68383 12.5187 8.5277C11.9018 8.36637 11.0538 8.08072 10.5476 7.86378C10.1968 7.71341 10.1877 7.77447 10.7293 6.64178C11.6173 4.78479 12.6171 3.51244 13.7923 2.74393C14.163 2.5015 14.8336 2.17458 14.9768 2.1665C15.0026 2.16506 15.0238 3.68573 15.0238 5.54579ZM17.6338 2.38601C18.9843 2.9801 20.2929 4.48994 21.3222 6.64178C21.8654 7.77735 21.8563 7.71278 21.4945 7.86791C20.9433 8.10427 20.001 8.41302 19.3401 8.57392C18.6891 8.73243 17.5033 8.9277 17.1921 8.9277H17.0279V5.54159V2.15541L17.1688 2.19944C17.2463 2.22368 17.4556 2.3076 17.6338 2.38601ZM9.91653 3.91382C9.48965 4.55275 8.79824 5.85022 8.55149 6.4755L8.44408 6.74768L8.27373 6.63727C8.09562 6.52184 7.29404 5.9121 6.98359 5.65589L6.80329 5.50708L7.14016 5.21029C7.62609 4.78222 8.94103 3.91852 9.66908 3.5492C10.0135 3.37447 10.3132 3.23086 10.3349 3.23005C10.3566 3.22924 10.1684 3.53693 9.91653 3.91382ZM22.3858 3.54851C22.7285 3.72456 23.2907 4.05192 23.6351 4.27606C24.2897 4.70193 25.2253 5.41878 25.2297 5.49775C25.2322 5.54453 24.1149 6.42252 23.7871 6.63126L23.607 6.74605L23.4999 6.47469C23.2534 5.85022 22.5618 4.55238 22.1351 3.91382C21.8833 3.53693 21.6965 3.22855 21.72 3.22855C21.7435 3.22855 22.0431 3.37253 22.3858 3.54851ZM5.92881 7.4287C6.22924 7.67207 6.76107 8.06606 7.11073 8.30437L7.74634 8.73756L7.59697 9.318C7.21513 10.8015 6.92284 12.6754 6.83222 14.2204L6.78819 14.9713L4.4749 14.9878C3.20255 14.9968 2.14169 14.9827 2.11745 14.9565C2.09321 14.9302 2.1105 14.6128 2.15597 14.2511C2.42633 12.099 3.19678 10.0296 4.39298 8.24268C4.72447 7.74748 5.30729 6.98623 5.35489 6.98623C5.3701 6.98623 5.62838 7.18533 5.92881 7.4287ZM27.0459 7.39607C27.8037 8.36048 28.5863 9.72753 29.0547 10.9056C29.4658 11.9394 29.8751 13.6852 29.9419 14.6895L29.9606 14.9713H27.612H25.2635L25.2195 14.2204C25.1288 12.6756 24.8365 10.8014 24.4548 9.31838L24.3055 8.73838L25.035 8.23779C25.4362 7.96248 25.9618 7.56942 26.2029 7.36438C26.444 7.1594 26.6598 6.99043 26.6826 6.98892C26.7052 6.98742 26.8688 7.17067 27.0459 7.39607ZM10.3816 9.99013C11.6269 10.4548 12.8191 10.7441 14.147 10.9039C14.5431 10.9515 14.9029 10.9914 14.9464 10.9925C15.0088 10.994 15.022 11.4142 15.009 12.9829L14.9925 14.9713L11.9057 14.9875L8.81903 15.0038L8.85717 14.4239C8.97297 12.6633 9.46961 9.74187 9.65311 9.74187C9.68787 9.74187 10.0157 9.8536 10.3816 9.99013ZM22.5938 10.2899C22.8711 11.4792 23.0804 12.9333 23.1977 14.4865L23.2368 15.0038L20.148 14.9875L17.0592 14.9713L17.0427 12.9875L17.0261 11.0036L17.3871 10.9644C19.1434 10.7736 20.8871 10.3591 21.9865 9.87094C22.4396 9.66978 22.4512 9.67774 22.5938 10.2899ZM6.83222 17.7889C6.92284 19.334 7.21513 21.2079 7.59697 22.6914L7.74634 23.2718L7.11073 23.705C6.76107 23.9433 6.22354 24.3419 5.91616 24.5909L5.35726 25.0436L5.14765 24.7985C4.82468 24.4208 4.11178 23.3591 3.78931 22.7755C2.92849 21.2175 2.37604 19.5197 2.15672 17.7583C2.11163 17.3966 2.08739 17.0792 2.1028 17.0529C2.11814 17.0267 3.17868 17.0126 4.45943 17.0216L6.78819 17.038L6.83222 17.7889ZM15.009 19.0265C15.022 20.5952 15.0088 21.0154 14.9464 21.0169C14.9029 21.0179 14.5431 21.0578 14.147 21.1055C12.8191 21.2652 11.6269 21.5545 10.3816 22.0192C10.0157 22.1558 9.68787 22.2675 9.65311 22.2675C9.46961 22.2675 8.97297 19.346 8.85717 17.5855L8.81903 17.0055L11.9057 17.0218L14.9925 17.038L15.009 19.0265ZM23.1976 17.5234C23.0423 19.5797 22.5864 22.268 22.393 22.2671C22.3528 22.2669 22.024 22.1516 21.6624 22.0108C20.5161 21.5645 18.9839 21.2183 17.388 21.045L17.0279 21.0059V19.0481C17.0279 17.9713 17.0467 17.0714 17.0697 17.0485C17.0926 17.0255 18.4896 17.0067 20.174 17.0067H23.2366L23.1976 17.5234ZM29.9419 17.3199C29.8751 18.3242 29.4658 20.0699 29.0547 21.1038C28.7502 21.8695 28.204 22.9254 27.7656 23.5956C27.3794 24.186 26.7522 25.0231 26.696 25.0231C26.6808 25.0231 26.4508 24.8438 26.1851 24.6246C25.9193 24.4054 25.3877 24.0108 25.0036 23.7476L24.3053 23.2692L24.4241 22.8154C24.8158 21.318 25.1353 19.3087 25.2059 17.8987C25.2261 17.4942 25.2536 17.1277 25.267 17.0843C25.2862 17.0221 25.7895 17.0087 27.626 17.0216L29.9606 17.038L29.9419 17.3199ZM15.0238 26.4678V29.8539L14.8829 29.8124C14.5132 29.7036 13.809 29.3027 13.3502 28.9399C12.393 28.183 11.5611 27.0602 10.796 25.4928C10.1777 24.226 10.1905 24.2986 10.5572 24.1414C11.7594 23.626 13.8141 23.1145 14.7889 23.088L15.0238 23.0817V26.4678ZM18.0219 23.179C19.2005 23.3513 20.4848 23.7071 21.4945 24.1411C21.8563 24.2966 21.8654 24.2321 21.3222 25.3676C20.4349 27.2226 19.4366 28.4927 18.2592 29.2648C17.9045 29.4974 17.1859 29.8455 17.0605 29.8455C17.0425 29.8455 17.0279 28.3236 17.0279 26.4636V23.0817H17.1921C17.2824 23.0817 17.6558 23.1254 18.0219 23.179ZM8.72666 25.9211C9.10837 26.7686 9.53055 27.5333 9.9858 28.2015C10.2029 28.5201 10.3679 28.7808 10.3525 28.7808C10.3372 28.7808 10.0167 28.6264 9.6404 28.4377C8.86494 28.0487 7.64131 27.2449 7.14185 26.7961L6.80654 26.4949L7.23103 26.1504C7.77195 25.7114 8.39999 25.2676 8.43318 25.3008C8.44727 25.3148 8.57936 25.594 8.72666 25.9211ZM24.5997 25.9793C24.9476 26.2468 25.2309 26.4864 25.2293 26.5116C25.2246 26.5906 24.4233 27.2057 23.7012 27.6848C23.1231 28.0683 21.8292 28.7808 21.711 28.7808C21.6924 28.7808 21.8833 28.4724 22.1351 28.0955C22.5618 27.457 23.2534 26.1591 23.4999 25.5347L23.607 25.2633L23.7871 25.3781C23.8862 25.4412 24.2519 25.7117 24.5997 25.9793Z" />
</symbol>


<!--youtube icon-->
<symbol id="icon-youtube" viewBox="0 0 32 32">
<path d="M11.2413 5.02813C7.45918 5.11855 4.428 5.37035 3.38235 5.68095C1.98182 6.09701 0.896029 7.29564 0.621873 8.72836C0.455926 9.59598 0.226106 11.3343 0.115016 12.5632C-0.0393458 14.2703 -0.0380934 18.2196 0.117333 19.9838C0.340327 22.5148 0.613732 24.1874 0.903731 24.795C1.41096 25.8577 2.28773 26.6282 3.36431 26.9573C4.16918 27.2033 6.00518 27.3899 9.1122 27.5417C11.3393 27.6504 20.7068 27.651 22.8889 27.5426C25.6119 27.4072 27.3525 27.2516 28.2845 27.0601C29.5511 26.7999 30.709 25.8355 31.197 24.6346C31.4317 24.0569 31.7113 22.2053 31.9181 19.8585C32.0411 18.4628 32.0216 13.9322 31.8863 12.4379C31.7244 10.6511 31.4189 8.59485 31.2478 8.13991C30.7695 6.86832 29.5956 5.84772 28.3056 5.5822C27.1361 5.34148 24.6586 5.15418 21.2607 5.04961C19.4969 4.99531 13.1798 4.98179 11.2413 5.02813ZM16.9285 13.8543C19.1562 15.15 21.0144 16.2432 21.0578 16.2837C21.1195 16.3413 20.326 16.8282 17.4257 18.5126C15.3848 19.698 13.5106 20.7882 13.2609 20.9353L12.8069 21.2028V16.3507C12.8069 13.682 12.8229 11.4986 12.8424 11.4986C12.862 11.4986 14.7007 12.5587 16.9285 13.8543Z" />
</symbol>

<!--tiktok icon-->
<symbol id="icon-tiktok" viewBox="0 0 32 32">
<path d="M29.904 13.1547C27.052 13.1547 24.408 12.2427 22.2507 10.6933V21.8733C22.2507 27.4573 17.708 31.9987 12.1253 31.9987C9.968 31.9987 7.96667 31.3187 6.32267 30.164C3.712 28.3307 2 25.2987 2 21.8733C2 16.2893 6.54267 11.7467 12.1267 11.7467C12.5907 11.7467 13.044 11.7853 13.4907 11.8453V13.148V17.4613C13.0587 17.3267 12.6027 17.248 12.1267 17.248C9.57733 17.248 7.50267 19.3227 7.50267 21.8733C7.50267 23.6493 8.51067 25.192 9.98267 25.9667C10.624 26.304 11.3533 26.4973 12.128 26.4973C14.6187 26.4973 16.6507 24.516 16.744 22.0467L16.748 0H22.2493C22.2493 0.477333 22.296 0.942667 22.3787 1.396C22.7667 3.492 24.0107 5.29067 25.7347 6.41467C26.9347 7.19733 28.3667 7.65467 29.9027 7.65467V13.1547H29.904Z" />
</symbol>


<!--Pix icon-->
<symbol id="icon-pix" viewBox="0 0 32 32">
<path d="M15.6063 0.0173346C14.745 0.0868689 13.9163 0.401753 13.158 0.947611C13.0417 1.03129 11.5495 2.4942 9.84192 4.19855L6.73725 7.29727L7.33503 7.34178C8.6407 7.43895 9.47845 7.67869 10.2028 8.16247C10.3626 8.26921 11.3853 9.26095 13.1388 11.0096C14.6244 12.4912 15.8779 13.7111 15.9376 13.7335C16.0962 13.793 16.3727 13.783 16.5136 13.7127C16.5813 13.679 17.8128 12.4782 19.2504 11.0443C21.0638 9.23554 21.9584 8.37026 22.1717 8.21859C22.9324 7.67776 23.7545 7.41512 24.8541 7.36153L25.3841 7.3357L22.2403 4.20097C19.9299 1.89715 19.0202 1.01438 18.8081 0.87062C17.8309 0.208218 16.764 -0.0761083 15.6063 0.0173346ZM4.33645 9.62942C3.93477 10.038 3.02486 10.9604 2.31449 11.6792C0.99353 13.0157 0.792268 13.2549 0.502792 13.8317C-0.0774303 14.988 -0.160918 16.4127 0.280697 17.6226C0.430221 18.0323 0.686218 18.5073 0.944252 18.8537C1.05999 19.0091 2.03362 20.0241 3.10789 21.1093L5.06108 23.0824L6.48613 23.0667C7.80363 23.0522 7.9344 23.0447 8.21869 22.9671C8.58139 22.868 9.09323 22.6307 9.36814 22.4342C9.47588 22.3572 10.7575 21.1064 12.2162 19.6547C13.8631 18.0159 14.9356 16.9772 15.0457 16.9145C15.7418 16.5185 16.6008 16.5049 17.3285 16.8784C17.5731 17.004 17.842 17.2599 20.2882 19.6945C23.168 22.5606 23.2072 22.5953 23.8206 22.8261C24.3268 23.0167 24.5246 23.0376 25.8178 23.0376H27.0181L28.9319 21.1213C29.9846 20.0674 30.9457 19.0716 31.0678 18.9086C31.487 18.3488 31.7843 17.6735 31.9405 16.926C32.0244 16.5248 32.034 15.6164 31.9589 15.1963C31.8316 14.4843 31.4917 13.6948 31.0591 13.1062C30.9173 12.9133 30.0934 12.0548 28.903 10.8597L26.9764 8.92546L25.7272 8.94111C24.5925 8.95529 24.4498 8.96444 24.1705 9.04051C23.8255 9.13449 23.3973 9.32683 23.1233 9.51091C23.0227 9.57845 21.7297 10.8388 20.2498 12.3117C17.308 15.2397 17.4071 15.1538 16.7867 15.3126C16.1573 15.4735 15.4672 15.3565 14.9313 14.9978C14.8333 14.9322 13.551 13.6812 12.0817 12.2178C9.32117 9.46836 9.272 9.42393 8.71719 9.17858C8.19155 8.9461 7.99567 8.92216 6.46976 8.90359L5.06677 8.88653L4.33645 9.62942ZM15.9255 18.2756C15.8727 18.2963 14.6186 19.5209 13.1388 20.9969C11.4874 22.6439 10.359 23.7399 10.2175 23.8343C9.47369 24.3303 8.64266 24.5682 7.32492 24.6623L6.66179 24.7097L9.78023 27.804C11.805 29.813 13.0027 30.9732 13.1954 31.1119C14.0305 31.7132 14.9307 32 15.9832 32C17.0598 32 18.0288 31.6808 18.8668 31.0502C19.1511 30.8361 25.3044 24.7532 25.3044 24.6861C25.3044 24.6674 25.1552 24.652 24.973 24.652C24.303 24.652 23.4641 24.4734 22.8911 24.2086C22.1989 23.8888 22.1174 23.816 19.2696 20.9774C17.8003 19.5128 16.5495 18.2961 16.49 18.2737C16.357 18.2235 16.0551 18.2246 15.9255 18.2756Z" />
</symbol>

<!--qrcode icon-->
<symbol id="icon-qrcode" viewBox="0 0 32 32">
<path d="M0 5.59375V11.1875H7.1875H14.375V12.7812V14.375H12H9.625V16V17.625H12H14.375V16V14.375H16H17.625V16V17.625H18.4062H19.1875V19.2188V20.8125H17.5938H16V23.2195V25.6265L13.6094 25.6101L11.2188 25.5938L11.2024 23.2031L11.186 20.8125H5.593H0V26.4062V32H5.59375H11.1875V30.4062V28.8125H13.5938H16V30.4062V32H19.1875H22.375V30.4062V28.8125H24H25.625V30.4062V32H28H30.375V30.4062V28.8125H29.5938H28.8125V27.2188V25.625H30.4062H32V24V22.375H30.4067H28.8134L28.7973 18.3906L28.7812 14.4062L23.2042 14.3903L17.6271 14.3743L17.6104 12.7966L17.5938 11.2188L15.9844 11.2021L14.375 11.1854V8.78019V6.375H16H17.625V3.1875V0H16H14.375V3.1875V6.375H12.7812H11.1875V3.1875V0H5.59375H0V5.59375ZM20.8125 5.59375V11.1875H26.4062H32V5.59375V0H26.4062H20.8125V5.59375ZM8 5.59375V8H5.59375H3.1875V5.59375V3.1875H5.59375H8V5.59375ZM28.8125 5.59375V8H26.4062H24V5.59375V3.1875H26.4062H28.8125V5.59375ZM0 16V17.625H3.1875H6.375V16V14.375H3.1875H0V16ZM25.625 20V22.375H27.2188H28.8125V24V25.625H24H19.1875V27.2188V28.8125H17.5938H16V27.2188V25.625H17.5938H19.1875V23.2188V20.8125H20.7812H22.375V19.2188V17.625H24H25.625V20ZM8 26.4062V28.8125H5.59375H3.1875V26.4062V24H5.59375H8V26.4062Z"/>
</symbol>

<!--share icon-->
<symbol id="icon-share" viewBox="0 0 32 32">
<path d="M23.5287 0.0891434C21.2 0.510123 19.3524 2.21374 18.719 4.52387C18.6053 4.93847 18.5813 5.19549 18.5786 6.02469C18.5758 6.88535 18.5953 7.0944 18.7177 7.51982C18.7959 7.79184 18.8378 8.03641 18.8106 8.0633C18.7501 8.12302 11.7182 12.1218 11.6737 12.1218C11.6562 12.1218 11.4876 11.9637 11.2989 11.7704C10.4414 10.8922 9.25517 10.2686 8.03651 10.0555C7.81295 10.0164 7.33456 9.9851 6.97343 9.98591C5.28688 9.98979 3.81796 10.6296 2.61855 11.883C1.91317 12.6201 1.35605 13.6714 1.11674 14.7169C0.961088 15.3967 0.961088 16.6011 1.11674 17.2808C1.65615 19.6374 3.47546 21.4215 5.83825 21.9112C6.40105 22.0278 7.4615 22.0428 8.03651 21.9422C9.25498 21.7292 10.4975 21.074 11.3207 20.2104C11.496 20.0264 11.6542 19.876 11.6722 19.876C11.7179 19.876 18.7497 23.8735 18.8106 23.9341C18.8378 23.9612 18.7959 24.2059 18.7177 24.4779C18.5953 24.9034 18.5758 25.1124 18.5786 25.9731C18.5824 27.1271 18.6838 27.6136 19.104 28.4926C19.7545 29.8532 20.6276 30.7408 21.9503 31.3862C25.6441 33.1882 29.9782 30.8396 30.5501 26.726C30.7883 25.0117 30.2123 23.2152 28.9867 21.8508C28.3454 21.1369 27.0858 20.3878 26.0776 20.121C25.3267 19.9222 24.1824 19.8914 23.4196 20.0493C22.2604 20.2893 21.2975 20.7864 20.4416 21.5864C20.1098 21.8966 19.8825 22.0644 19.8243 22.0421C19.7434 22.0111 12.7861 18.0729 12.7397 18.0319C12.7298 18.023 12.7855 17.7801 12.8638 17.492C13.0694 16.7338 13.0694 15.2639 12.8638 14.5057C12.7855 14.2177 12.7298 13.9746 12.7397 13.9658C12.7827 13.9275 19.7549 9.98228 19.8316 9.95283C19.8803 9.93413 20.1395 10.1289 20.4416 10.4113C21.2975 11.2114 22.2604 11.7084 23.4196 11.9484C24.1759 12.105 25.3225 12.0753 26.0776 11.8794C26.7849 11.696 27.8569 11.1414 28.4211 10.667C31.6703 7.93517 31.2033 2.87516 27.5077 0.769139C26.3353 0.101025 24.8585 -0.1513 23.5287 0.0891434ZM25.3313 2.18278C25.5354 2.21937 25.9665 2.37664 26.2894 2.53229C27.2685 3.00436 27.9545 3.80786 28.3368 4.93034C28.4978 5.40341 28.4965 6.69412 28.3343 7.1503C27.9746 8.1626 27.3023 8.99837 26.4841 9.45037C25.6932 9.88723 24.6149 10.049 23.72 9.86491C22.6538 9.6456 21.5414 8.75955 21.0579 7.74438C20.753 7.10428 20.6684 6.72607 20.6684 6.00349C20.6684 4.91665 21.0308 4.05731 21.8208 3.27125C22.7753 2.32136 23.9946 1.94334 25.3313 2.18278ZM8.01531 12.2087C9.38849 12.5762 10.4968 13.7099 10.8191 15.0768C10.937 15.5768 10.937 16.4209 10.8191 16.9209C10.5499 18.0631 9.71423 19.0722 8.63058 19.564C8.06683 19.8198 7.63379 19.9061 6.94216 19.9003C5.89965 19.8915 4.9956 19.5084 4.25332 18.7609C3.79938 18.3038 3.44638 17.7301 3.26566 17.1558C3.07055 16.5356 3.07055 15.4621 3.26566 14.842C3.69996 13.4617 4.93319 12.3813 6.36822 12.1239C6.76982 12.0518 7.5862 12.0939 8.01531 12.2087ZM25.6098 22.1937C26.8856 22.5458 27.8504 23.4855 28.3343 24.8474C28.4965 25.3036 28.4978 26.5943 28.3368 27.0674C27.9545 28.1899 27.2685 28.9934 26.2894 29.4655C25.4207 29.8843 24.6298 29.9832 23.7094 29.7883C22.3252 29.495 21.1205 28.3196 20.7631 26.9136C20.711 26.7086 20.6684 26.2854 20.6684 25.9731C20.6684 25.6608 20.711 25.2375 20.7631 25.0325C21.1107 23.6653 22.2449 22.5211 23.6075 22.1632C24.1312 22.0257 25.0516 22.0397 25.6098 22.1937Z" />
</symbol>

</defs>
</svg>